<svg xmlns="http://www.w3.org/2000/svg" viewBox="0 0 256 256" width="256" height="256">
  <g>
    <rect x="14" y="14" width="228" height="228" rx="20" fill="#5b6485"/>
    <clipPath id="c"><rect x="14" y="14" width="228" height="228" rx="20"/></clipPath>
    <g clip-path="url(#c)"><line x1="-256" y1="0" x2="-512" y2="256" stroke="#20263c" stroke-width="7" opacity="0.65"/><line x1="-234" y1="0" x2="-490" y2="256" stroke="#20263c" stroke-width="7" opacity="0.65"/><line x1="-212" y1="0" x2="-468" y2="256" stroke="#20263c" stroke-width="7" opacity="0.65"/><line x1="-190" y1="0" x2="-446" y2="256" stroke="#20263c" stroke-width="7" opacity="0.65"/><line x1="-168" y1="0" x2="-424" y2="256" stroke="#20263c" stroke-width="7" opacity="0.65"/><line x1="-146" y1="0" x2="-402" y2="256" stroke="#20263c" stroke-width="7" opacity="0.65"/><line x1="-124" y1="0" x2="-380" y2="256" stroke="#20263c" stroke-width="7" opacity="0.65"/><line x1="-102" y1="0" x2="-358" y2="256" stroke="#20263c" stroke-width="7" opacity="0.65"/><line x1="-80" y1="0" x2="-336" y2="256" stroke="#20263c" stroke-width="7" opacity="0.65"/><line x1="-58" y1="0" x2="-314" y2="256" stroke="#20263c" stroke-width="7" opacity="0.65"/><line x1="-36" y1="0" x2="-292" y2="256" stroke="#20263c" stroke-width="7" opacity="0.65"/><line x1="-14" y1="0" x2="-270" y2="256" stroke="#20263c" stroke-width="7" opacity="0.65"/><line x1="8" y1="0" x2="-248" y2="256" stroke="#20263c" stroke-width="7" opacity="0.65"/><line x1="30" y1="0" x2="-226" y2="256" stroke="#20263c" stroke-width="7" opacity="0.65"/><line x1="52" y1="0" x2="-204" y2="256" stroke="#20263c" stroke-width="7" opacity="0.65"/><line x1="74" y1="0" x2="-182" y2="256" stroke="#20263c" stroke-width="7" opacity="0.65"/><line x1="96" y1="0" x2="-160" y2="256" stroke="#20263c" stroke-width="7" opacity="0.65"/><line x1="118" y1="0" x2="-138" y2="256" stroke="#20263c" stroke-width="7" opacity="0.65"/><line x1="140" y1="0" x2="-116" y2="256" stroke="#20263c" stroke-width="7" opacity="0.65"/><line x1="162" y1="0" x2="-94" y2="256" stroke="#20263c" stroke-width="7" opacity="0.65"/><line x1="184" y1="0" x2="-72" y2="256" stroke="#20263c" stroke-width="7" opacity="0.65"/><line x1="206" y1="0" x2="-50" y2="256" stroke="#20263c" stroke-width="7" opacity="0.65"/><line x1="228" y1="0" x2="-28" y2="256" stroke="#20263c" stroke-width="7" opacity="0.65"/><line x1="250" y1="0" x2="-6" y2="256" stroke="#20263c" stroke-width="7" opacity="0.65"/><line x1="272" y1="0" x2="16" y2="256" stroke="#20263c" stroke-width="7" opacity="0.65"/><line x1="294" y1="0" x2="38" y2="256" stroke="#20263c" stroke-width="7" opacity="0.65"/><line x1="316" y1="0" x2="60" y2="256" stroke="#20263c" stroke-width="7" opacity="0.65"/><line x1="338" y1="0" x2="82" y2="256" stroke="#20263c" stroke-width="7" opacity="0.65"/><line x1="360" y1="0" x2="104" y2="256" stroke="#20263c" stroke-width="7" opacity="0.65"/><line x1="382" y1="0" x2="126" y2="256" stroke="#20263c" stroke-width="7" opacity="0.65"/><line x1="404" y1="0" x2="148" y2="256" stroke="#20263c" stroke-width="7" opacity="0.65"/><line x1="426" y1="0" x2="170" y2="256" stroke="#20263c" stroke-width="7" opacity="0.65"/><line x1="448" y1="0" x2="192" y2="256" stroke="#20263c" stroke-width="7" opacity="0.65"/><line x1="470" y1="0" x2="214" y2="256" stroke="#20263c" stroke-width="7" opacity="0.65"/><line x1="492" y1="0" x2="236" y2="256" stroke="#20263c" stroke-width="7" opacity="0.65"/></g>
    <rect x="14" y="14" width="228" height="228" rx="20" fill="none" stroke="#c3cae8" stroke-width="4" opacity="0.6"/>
    <path d="M 81.92 81.92 L 174.08 174.08 M 174.08 81.92 L 81.92 174.08"
          stroke="#ffe08a" stroke-width="12" stroke-linecap="round" opacity="0.85"/>
  </g>
</svg>
